<svg xmlns="http://www.w3.org/2000/svg" xml:space="preserve" width="64" height="64" id="amazon">
  <path fill="#626A84" d="M49.419 38.3c-.036-.07-.169-.139-.21-.206C47.707 36.176 46 34.531 46 30.837v-12.32c0-5.2.612-9.992-3.218-13.548C39.637 2.099 34.906 1 31.075 1h-1.644c-6.974.405-14.359 3.418-16.009 12.042-.271 1.099.552 1.507 1.097 1.643l7.664.958c.82-.138 1.233-.996 1.368-1.674C24.233 10.956 26.624 9 29.432 9h.55c1.644 0 3.264.858 4.219 2.229 1.093 1.641.799 4.006.799 5.924v1.094c-1 .135-3.675.27-5.727.54-3.146.417-6.212.963-8.81 2.196-5.062 2.054-8.445 6.434-8.445 12.864 0 1.653.247 3.133.65 4.453 1.564 5.126 5.922 7.73 11.15 7.73 2.188 0 3.97-.277 5.608-.681 2.605-.825 4.792-2.331 7.391-5.071 1.505 2.053 1.921 3.016 4.518 5.205.687.27 1.371.27 1.914-.134 1.645-1.373 4.521-3.838 6.022-5.205.619-.493.469-1.21.148-1.844zM29.273 25.085c1.777-.408 3.727-.547 5.727-.547v1.645c0 3.147.294 5.61-1.346 8.349-.958 1.915-2.524 3.147-4.301 3.562-.271 0-.643.136-1.055.136-3.007 0-4.845-2.326-4.845-5.748 0-4.384 2.538-6.433 5.82-7.397z"></path>
  <path fill="#4B506D" d="M13.423 13.042c-.271 1.099.552 1.507 1.097 1.643l7.664.958c.82-.138 1.233-.996 1.368-1.674C24.233 10.956 26.567 9 29.432 9h.55c1.644 0 3.264.858 4.219 2.229 1.093 1.641.799 4.006.799 5.924v1.094c-1 .135-3.675.27-5.727.54-3.146.417-6.212.963-8.81 2.196-5.062 2.054-8.445 6.434-8.445 12.864 0 1.653.247 3.133.65 4.453 1.564 5.126 5.922 7.73 11.15 7.73 2.188 0 3.97-.277 5.608-.681 2.605-.825 4.792-2.331 7.391-5.071 1.505 2.053 1.921 3.016 4.518 5.205.687.27 1.371.27 1.914-.134 1.645-1.373 4.521-3.838 6.022-5.205.618-.493.468-1.211.147-1.845-.036-.07-.169-.139-.21-.206C47.707 36.176 46 34.531 46 30.837v-12.32c0-5.2.612-9.992-3.218-13.548M29.273 25.085c1.777-.408 3.727-.547 5.727-.547v1.645c0 3.147.294 5.61-1.346 8.349-.958 1.915-2.524 3.147-4.301 3.562-.271 0-.643.136-1.055.136-3.007 0-4.845-2.326-4.845-5.748 0-4.384 2.538-6.433 5.82-7.397z"></path>
  <path fill="#EA7B0C" d="M56.359 49.018c.556-.004 1.106.036 1.45.108.17.038.325.082.393.117a.425.425 0 0 1 .07.026c.014.047.043.171.04.343.006.655-.267 1.874-.651 3.063-.371 1.188-.823 2.381-1.121 3.173-.072.182-.12.383-.12.602-.006.317.125.822.403 1.076.27.255.62.474.911.474h.015c.438 0 .811-.296 1.131-.546 3.024-2.723 4.082-7.128 4.125-9.574L63 47.431v-.004c0-.645-.168-1.138-.438-1.545l-.031-.042-.033-.039c-.273-.3-.537-.412-.821-.536-.851-.329-2.19-.504-3.678-.508-.602 0-1 .039-2 .112v4.153l.36-.004z"></path>
  <path fill="#FA9826" d="M54.062 50.594c-.31-.004-.924.113-1.219.25-.332.131-.648.323-.969.457l-.625.371-.775.328s.185 0 0 0h5.357c-.284-.469-.957-1.406-1.769-1.406z"></path>
  <path fill="#FA9826" d="M55.831 52h-5.357c-6.486 3-13.268 4.318-19.556 4.453C24.682 56.457 18.442 55 13.165 52 10.601 51 8 49.955 6 48.576c-1-.409-1.684-.82-2.425-1.231a2.317 2.317 0 0 0-.987-.235c-.375 0-.812.143-1.092.405-.281.266-.474.649-.47 1.041-.004.505.257.972.641 1.274C9.521 56.656 18.126 62.993 29.708 63c.225 0 .452-.007.681-.011 7.367-.164 15.695-2.655 22.163-6.719l.039-.023a22.838 22.838 0 0 0 2.49-1.723c.496-.368.838-1.188.838-1.788-.005-.175-.041.264-.088-.736zM54.57 45.118c-1.882.413-3.188 1.314-3.854 1.799-.416.31-.814.723-.831 1.353-.012.344.136.737.424.97a1.415 1.415 0 0 0 1.092.298l.055-.004.042-.007c.584-.122 1.327-.207 2.323-.347.765-.084 1.18-.145 2.18-.158v-4.153c-.001.058-.916.136-1.431.249z"></path>
  <path fill="#2A2B35" d="M49.419 38.3C47.917 36.382 46 34.531 46 30.837V19.729c-3 2.194-8.259 3.88-13.3 4.883.746-.045 2.3-.073 2.3-.073v1.645c0 3.147.294 5.61-1.346 8.349-.958 1.915-2.524 3.147-4.301 3.562-.271 0-.643.136-1.055.136-3.007 0-4.766-2.326-4.766-5.748 0-4.122 2.11-6.164 5.113-7.195a53.089 53.089 0 0 1-6.364.368c-2.971 0-5.938.598-8.694 1.416-1.032 1.93-1.568 4.133-1.568 6.776 0 1.653.267 3.133.67 4.453 1.564 5.126 5.912 7.73 11.14 7.73 2.188 0 3.965-.277 5.604-.681 2.605-.825 4.789-2.331 7.389-5.071 1.505 2.053 1.92 3.016 4.517 5.205.687.27 1.37.27 1.913-.134 1.645-1.373 4.521-3.838 6.022-5.205.617-.494.466-1.211.145-1.845-.036-.071.041.067 0 0z"></path>
  <path fill="#EA7B0C" d="M55.831 52h-5.357c-6.486 3-14.694 7.482-20.983 7.619-.236.008.231 0 0 0-6.236.004-11.048-.873-16.325-3.316L6.83 53.089a15.377 15.377 0 0 1-3.439-1.788c7.395 6.229 15.576 11.686 26.311 11.691.225 0 .455-.003.685-.007 7.367-.164 15.696-2.653 22.164-6.717l.039-.022a22.838 22.838 0 0 0 2.49-1.723c.496-.367.839-1.268.839-1.867a7.61 7.61 0 0 0-.088-.656z"></path>
</svg>
